<?xml version="1.0" encoding="utf-8" ?>
<svg baseProfile="tiny" height="200" version="1.2" viewBox="0 0 200 200" width="200" xmlns="http://www.w3.org/2000/svg" xmlns:ev="http://www.w3.org/2001/xml-events" xmlns:xlink="http://www.w3.org/1999/xlink"><defs /><line stroke="black" stroke-width="24" x1="100" x2="170.0" y1="100" y2="100.0" /><line stroke="white" stroke-width="20" x1="100" x2="170.0" y1="100" y2="100.0" /><line stroke="black" stroke-width="4" x1="150.0" x2="160.0" y1="100.0" y2="100.0" /><line stroke="black" stroke-width="24" x1="100" x2="121.6312" y1="100" y2="166.574" /><line stroke="blue" stroke-width="20" x1="100" x2="121.6312" y1="100" y2="166.574" /><line stroke="black" stroke-width="4" x1="115.4508" x2="118.541" y1="147.5528" y2="157.0634" /><line stroke="black" stroke-width="24" x1="100" x2="43.3688" y1="100" y2="141.145" /><line stroke="purple" stroke-width="20" x1="100" x2="43.3688" y1="100" y2="141.145" /><line stroke="black" stroke-width="4" x1="59.5492" x2="51.459" y1="129.3893" y2="135.2671" /><line stroke="black" stroke-width="24" x1="100" x2="43.3688" y1="100" y2="58.855" /><line stroke="brown" stroke-width="20" x1="100" x2="43.3688" y1="100" y2="58.855" /><line stroke="black" stroke-width="4" x1="59.5492" x2="51.459" y1="70.6107" y2="64.7329" /><line stroke="white" stroke-width="24" x1="100" x2="121.6312" y1="100" y2="33.426" /><line stroke="black" stroke-width="20" x1="100" x2="121.6312" y1="100" y2="33.426" /><line stroke="white" stroke-width="4" x1="115.4508" x2="118.541" y1="52.4472" y2="42.9366" /><polygon fill="white" points="100,100 115.0,100.0 104.6353,114.2658" stroke="black" stroke-width="2" /><polygon fill="blue" points="100,100 104.6353,114.2658 87.8647,108.8168" stroke="black" stroke-width="2" /><polygon fill="purple" points="100,100 87.8647,108.8168 87.8647,91.1832" stroke="black" stroke-width="2" /><polygon fill="brown" points="100,100 87.8647,91.1832 104.6353,85.7342" stroke="black" stroke-width="2" /><polygon fill="black" points="100,100 104.6353,85.7342 115.0,100.0" stroke="white" stroke-width="2" /></svg>